<mxfile host="app.diagrams.net" modified="2023-03-21T11:10:55.980Z" agent="5.0 (Macintosh; Intel Mac OS X 10_15_7) AppleWebKit/537.36 (KHTML, like Gecko) Chrome/110.0.0.0 Safari/537.36" etag="zVSkrAbMFkrk5ZJF99_r" version="20.6.0" type="github">
  <diagram name="Page-1" id="74e2e168-ea6b-b213-b513-2b3c1d86103e">
    <mxGraphModel dx="2350" dy="2069" grid="1" gridSize="10" guides="1" tooltips="1" connect="1" arrows="1" fold="1" page="1" pageScale="1" pageWidth="1100" pageHeight="850" background="none" math="0" shadow="0">
      <root>
        <mxCell id="0" />
        <mxCell id="1" parent="0" />
        <mxCell id="SCl5dZPbBmrS3JKKXA1v-22" style="edgeStyle=orthogonalEdgeStyle;rounded=0;orthogonalLoop=1;jettySize=auto;html=1;" edge="1" parent="1" source="SCl5dZPbBmrS3JKKXA1v-19" target="SCl5dZPbBmrS3JKKXA1v-21">
          <mxGeometry relative="1" as="geometry">
            <Array as="points">
              <mxPoint x="520" y="-740" />
              <mxPoint x="370" y="-740" />
            </Array>
          </mxGeometry>
        </mxCell>
        <mxCell id="SCl5dZPbBmrS3JKKXA1v-25" style="edgeStyle=orthogonalEdgeStyle;rounded=0;orthogonalLoop=1;jettySize=auto;html=1;" edge="1" parent="1" source="SCl5dZPbBmrS3JKKXA1v-19">
          <mxGeometry relative="1" as="geometry">
            <mxPoint x="700" y="-660" as="targetPoint" />
            <Array as="points">
              <mxPoint x="520" y="-740" />
              <mxPoint x="700" y="-740" />
            </Array>
          </mxGeometry>
        </mxCell>
        <mxCell id="SCl5dZPbBmrS3JKKXA1v-19" value="" style="outlineConnect=0;dashed=0;verticalLabelPosition=bottom;verticalAlign=top;align=center;html=1;shape=mxgraph.aws3.mobile_client;fillColor=#D2D3D3;gradientColor=none;" vertex="1" parent="1">
          <mxGeometry x="500" y="-830" width="40.5" height="63" as="geometry" />
        </mxCell>
        <mxCell id="SCl5dZPbBmrS3JKKXA1v-35" value="" style="edgeStyle=orthogonalEdgeStyle;rounded=0;orthogonalLoop=1;jettySize=auto;html=1;" edge="1" parent="1" source="SCl5dZPbBmrS3JKKXA1v-21" target="SCl5dZPbBmrS3JKKXA1v-36">
          <mxGeometry relative="1" as="geometry">
            <mxPoint x="370" y="-550" as="targetPoint" />
          </mxGeometry>
        </mxCell>
        <mxCell id="SCl5dZPbBmrS3JKKXA1v-21" value="请求用户服务" style="rounded=1;whiteSpace=wrap;html=1;absoluteArcSize=1;arcSize=14;strokeWidth=2;" vertex="1" parent="1">
          <mxGeometry x="310" y="-660" width="120" height="50" as="geometry" />
        </mxCell>
        <mxCell id="SCl5dZPbBmrS3JKKXA1v-31" style="edgeStyle=orthogonalEdgeStyle;rounded=0;orthogonalLoop=1;jettySize=auto;html=1;entryX=0;entryY=0.5;entryDx=0;entryDy=0;" edge="1" parent="1" source="SCl5dZPbBmrS3JKKXA1v-26" target="SCl5dZPbBmrS3JKKXA1v-28">
          <mxGeometry relative="1" as="geometry" />
        </mxCell>
        <mxCell id="SCl5dZPbBmrS3JKKXA1v-26" value="行为数据上报子流程" style="verticalLabelPosition=bottom;verticalAlign=top;html=1;shape=process;whiteSpace=wrap;rounded=1;size=0.14;arcSize=6;" vertex="1" parent="1">
          <mxGeometry x="640" y="-660" width="114.29" height="50" as="geometry" />
        </mxCell>
        <mxCell id="SCl5dZPbBmrS3JKKXA1v-28" value="ClickHouse.skyeye" style="shape=datastore;whiteSpace=wrap;html=1;" vertex="1" parent="1">
          <mxGeometry x="920" y="-672.5" width="75" height="75" as="geometry" />
        </mxCell>
        <mxCell id="SCl5dZPbBmrS3JKKXA1v-40" value="" style="edgeStyle=orthogonalEdgeStyle;rounded=0;orthogonalLoop=1;jettySize=auto;html=1;" edge="1" parent="1" source="SCl5dZPbBmrS3JKKXA1v-36">
          <mxGeometry relative="1" as="geometry">
            <mxPoint x="490" y="-507.5" as="targetPoint" />
          </mxGeometry>
        </mxCell>
        <mxCell id="SCl5dZPbBmrS3JKKXA1v-36" value="是否为定义的核心行为事件？" style="strokeWidth=2;html=1;shape=mxgraph.flowchart.decision;whiteSpace=wrap;" vertex="1" parent="1">
          <mxGeometry x="320" y="-540" width="100" height="65" as="geometry" />
        </mxCell>
        <mxCell id="SCl5dZPbBmrS3JKKXA1v-37" value="&lt;p style=&quot;margin: 0px; font-variant-numeric: normal; font-variant-east-asian: normal; font-stretch: normal; line-height: normal; font-family: Menlo;&quot; class=&quot;p1&quot;&gt;加购：&lt;/p&gt;&lt;p style=&quot;margin: 0px; font-variant-numeric: normal; font-variant-east-asian: normal; font-stretch: normal; line-height: normal; font-family: Menlo;&quot; class=&quot;p1&quot;&gt;ADD_TO_CART&lt;/p&gt;&lt;p style=&quot;margin: 0px; font-variant-numeric: normal; font-variant-east-asian: normal; font-stretch: normal; line-height: normal; font-family: Menlo;&quot; class=&quot;p1&quot;&gt;DELETE_FROM_CART&lt;/p&gt;&lt;p style=&quot;margin: 0px; font-variant-numeric: normal; font-variant-east-asian: normal; font-stretch: normal; line-height: normal; font-family: Menlo; min-height: 14px;&quot; class=&quot;p2&quot;&gt;&lt;br&gt;&lt;/p&gt;&lt;p style=&quot;margin: 0px; font-variant-numeric: normal; font-variant-east-asian: normal; font-stretch: normal; line-height: normal; font-family: Menlo; min-height: 14px;&quot; class=&quot;p2&quot;&gt;收藏：&lt;/p&gt;&lt;p style=&quot;margin: 0px; font-variant-numeric: normal; font-variant-east-asian: normal; font-stretch: normal; line-height: normal; font-family: Menlo;&quot; class=&quot;p1&quot;&gt;FAVORITE&lt;/p&gt;&lt;p style=&quot;margin: 0px; font-variant-numeric: normal; font-variant-east-asian: normal; font-stretch: normal; line-height: normal; font-family: Menlo;&quot; class=&quot;p1&quot;&gt;UNFAVORITE&lt;/p&gt;&lt;p style=&quot;margin: 0px; font-variant-numeric: normal; font-variant-east-asian: normal; font-stretch: normal; line-height: normal; font-family: Menlo; min-height: 14px;&quot; class=&quot;p2&quot;&gt;&lt;br&gt;&lt;/p&gt;&lt;p style=&quot;margin: 0px; font-variant-numeric: normal; font-variant-east-asian: normal; font-stretch: normal; line-height: normal; font-family: Menlo; min-height: 14px;&quot; class=&quot;p2&quot;&gt;登陆：&lt;/p&gt;&lt;p style=&quot;margin: 0px; font-variant-numeric: normal; font-variant-east-asian: normal; font-stretch: normal; line-height: normal; font-family: Menlo;&quot; class=&quot;p1&quot;&gt;LOGIN&lt;/p&gt;&lt;p style=&quot;margin: 0px; font-variant-numeric: normal; font-variant-east-asian: normal; font-stretch: normal; line-height: normal; font-family: Menlo;&quot; class=&quot;p1&quot;&gt;LOGOUT&lt;/p&gt;&lt;p style=&quot;margin: 0px; font-variant-numeric: normal; font-variant-east-asian: normal; font-stretch: normal; line-height: normal; font-family: Menlo; min-height: 14px;&quot; class=&quot;p2&quot;&gt;&lt;br&gt;&lt;/p&gt;&lt;p style=&quot;margin: 0px; font-variant-numeric: normal; font-variant-east-asian: normal; font-stretch: normal; line-height: normal; font-family: Menlo; min-height: 14px;&quot; class=&quot;p2&quot;&gt;注册：&lt;/p&gt;&lt;p style=&quot;margin: 0px; font-variant-numeric: normal; font-variant-east-asian: normal; font-stretch: normal; line-height: normal; font-family: Menlo;&quot; class=&quot;p1&quot;&gt;REGISTER&lt;/p&gt;" style="strokeWidth=2;html=1;shape=mxgraph.flowchart.annotation_1;align=left;pointerEvents=1;" vertex="1" parent="1">
          <mxGeometry x="150" y="-630" width="40" height="260" as="geometry" />
        </mxCell>
        <mxCell id="SCl5dZPbBmrS3JKKXA1v-44" value="" style="edgeStyle=orthogonalEdgeStyle;rounded=0;orthogonalLoop=1;jettySize=auto;html=1;" edge="1" parent="1" source="SCl5dZPbBmrS3JKKXA1v-42" target="SCl5dZPbBmrS3JKKXA1v-43">
          <mxGeometry relative="1" as="geometry" />
        </mxCell>
        <mxCell id="SCl5dZPbBmrS3JKKXA1v-42" value="保存用户行为" style="rounded=1;whiteSpace=wrap;html=1;absoluteArcSize=1;arcSize=14;strokeWidth=2;" vertex="1" parent="1">
          <mxGeometry x="490" y="-532.5" width="120" height="50" as="geometry" />
        </mxCell>
        <mxCell id="SCl5dZPbBmrS3JKKXA1v-49" style="edgeStyle=orthogonalEdgeStyle;rounded=0;orthogonalLoop=1;jettySize=auto;html=1;entryX=0.5;entryY=0;entryDx=0;entryDy=0;" edge="1" parent="1" source="SCl5dZPbBmrS3JKKXA1v-43" target="SCl5dZPbBmrS3JKKXA1v-48">
          <mxGeometry relative="1" as="geometry" />
        </mxCell>
        <mxCell id="SCl5dZPbBmrS3JKKXA1v-43" value="us.us_behavior_records" style="strokeWidth=2;html=1;shape=mxgraph.flowchart.database;whiteSpace=wrap;" vertex="1" parent="1">
          <mxGeometry x="520" y="-425" width="60" height="60" as="geometry" />
        </mxCell>
        <mxCell id="SCl5dZPbBmrS3JKKXA1v-45" value="ods.us_behavior_records" style="strokeWidth=2;html=1;shape=mxgraph.flowchart.database;whiteSpace=wrap;" vertex="1" parent="1">
          <mxGeometry x="520" y="-200" width="60" height="60" as="geometry" />
        </mxCell>
        <mxCell id="SCl5dZPbBmrS3JKKXA1v-50" style="edgeStyle=orthogonalEdgeStyle;rounded=0;orthogonalLoop=1;jettySize=auto;html=1;entryX=0.5;entryY=0;entryDx=0;entryDy=0;entryPerimeter=0;" edge="1" parent="1" source="SCl5dZPbBmrS3JKKXA1v-48" target="SCl5dZPbBmrS3JKKXA1v-45">
          <mxGeometry relative="1" as="geometry" />
        </mxCell>
        <mxCell id="SCl5dZPbBmrS3JKKXA1v-48" value="AWS 的 DMS（数据同步服务）" style="rounded=1;whiteSpace=wrap;html=1;absoluteArcSize=1;arcSize=14;strokeWidth=2;" vertex="1" parent="1">
          <mxGeometry x="490" y="-310" width="120" height="50" as="geometry" />
        </mxCell>
        <mxCell id="SCl5dZPbBmrS3JKKXA1v-51" value="非浏览行为定时处理任务" style="sketch=0;aspect=fixed;pointerEvents=1;shadow=0;dashed=0;html=1;strokeColor=none;labelPosition=center;verticalLabelPosition=bottom;verticalAlign=top;align=center;shape=mxgraph.azure.startup_task;fillColor=#0078D7;" vertex="1" parent="1">
          <mxGeometry x="1340" y="-80" width="57.6" height="60" as="geometry" />
        </mxCell>
        <mxCell id="SCl5dZPbBmrS3JKKXA1v-53" value="浏览行为处理定时任务" style="sketch=0;aspect=fixed;pointerEvents=1;shadow=0;dashed=0;html=1;strokeColor=none;labelPosition=center;verticalLabelPosition=bottom;verticalAlign=top;align=center;shape=mxgraph.azure.startup_task;fillColor=#0078D7;" vertex="1" parent="1">
          <mxGeometry x="210" y="-65" width="57.6" height="60" as="geometry" />
        </mxCell>
        <mxCell id="SCl5dZPbBmrS3JKKXA1v-56" value="扫描用户行为数据" style="rounded=1;whiteSpace=wrap;html=1;absoluteArcSize=1;arcSize=14;strokeWidth=2;" vertex="1" parent="1">
          <mxGeometry x="490" y="-60" width="120" height="50" as="geometry" />
        </mxCell>
        <mxCell id="SCl5dZPbBmrS3JKKXA1v-57" value="清洗用户浏览数据" style="rounded=1;whiteSpace=wrap;html=1;absoluteArcSize=1;arcSize=14;strokeWidth=2;" vertex="1" parent="1">
          <mxGeometry x="900" y="-475" width="120" height="50" as="geometry" />
        </mxCell>
        <mxCell id="SCl5dZPbBmrS3JKKXA1v-59" value="" style="edgeStyle=orthogonalEdgeStyle;rounded=0;orthogonalLoop=1;jettySize=auto;html=1;entryX=0;entryY=0.5;entryDx=0;entryDy=0;exitX=0.5;exitY=0;exitDx=0;exitDy=0;exitPerimeter=0;" edge="1" parent="1" source="SCl5dZPbBmrS3JKKXA1v-51" target="SCl5dZPbBmrS3JKKXA1v-57">
          <mxGeometry relative="1" as="geometry">
            <mxPoint x="230" y="-90" as="sourcePoint" />
            <mxPoint x="500" y="-497.5" as="targetPoint" />
            <Array as="points">
              <mxPoint x="1369" y="-450" />
            </Array>
          </mxGeometry>
        </mxCell>
        <mxCell id="SCl5dZPbBmrS3JKKXA1v-62" value="" style="endArrow=classic;html=1;rounded=0;exitX=0.5;exitY=1;exitDx=0;exitDy=0;dashed=1;" edge="1" parent="1" source="SCl5dZPbBmrS3JKKXA1v-28" target="SCl5dZPbBmrS3JKKXA1v-57">
          <mxGeometry width="50" height="50" relative="1" as="geometry">
            <mxPoint x="520" y="-190" as="sourcePoint" />
            <mxPoint x="570" y="-240" as="targetPoint" />
          </mxGeometry>
        </mxCell>
        <mxCell id="SCl5dZPbBmrS3JKKXA1v-63" value="" style="endArrow=classic;html=1;rounded=0;exitX=0.5;exitY=1;exitDx=0;exitDy=0;dashed=1;exitPerimeter=0;" edge="1" parent="1" source="SCl5dZPbBmrS3JKKXA1v-45">
          <mxGeometry width="50" height="50" relative="1" as="geometry">
            <mxPoint x="550" y="-130" as="sourcePoint" />
            <mxPoint x="550" y="-60" as="targetPoint" />
          </mxGeometry>
        </mxCell>
        <mxCell id="SCl5dZPbBmrS3JKKXA1v-66" value="" style="endArrow=classic;html=1;rounded=0;exitX=1;exitY=0.5;exitDx=0;exitDy=0;exitPerimeter=0;" edge="1" parent="1" source="SCl5dZPbBmrS3JKKXA1v-53" target="SCl5dZPbBmrS3JKKXA1v-56">
          <mxGeometry width="50" height="50" relative="1" as="geometry">
            <mxPoint x="520" y="-20" as="sourcePoint" />
            <mxPoint x="570" y="-70" as="targetPoint" />
          </mxGeometry>
        </mxCell>
        <mxCell id="SCl5dZPbBmrS3JKKXA1v-72" style="edgeStyle=orthogonalEdgeStyle;rounded=0;orthogonalLoop=1;jettySize=auto;html=1;" edge="1" parent="1" source="SCl5dZPbBmrS3JKKXA1v-67" target="SCl5dZPbBmrS3JKKXA1v-71">
          <mxGeometry relative="1" as="geometry" />
        </mxCell>
        <mxCell id="SCl5dZPbBmrS3JKKXA1v-67" value="&lt;span style=&quot;caret-color: rgb(51, 51, 51); color: rgb(51, 51, 51); font-family: &amp;quot;Open Sans&amp;quot;, &amp;quot;Clear Sans&amp;quot;, &amp;quot;Helvetica Neue&amp;quot;, Helvetica, Arial, &amp;quot;Segoe UI Emoji&amp;quot;, sans-serif; font-size: 13px; orphans: 4; text-align: start; text-size-adjust: auto; background-color: rgb(255, 255, 255);&quot;&gt;cdp_queue_user_behavior_push_sub&lt;/span&gt;" style="strokeWidth=2;html=1;shape=mxgraph.flowchart.sequential_data;whiteSpace=wrap;" vertex="1" parent="1">
          <mxGeometry x="920" y="-90" width="90" height="90" as="geometry" />
        </mxCell>
        <mxCell id="SCl5dZPbBmrS3JKKXA1v-68" value="" style="endArrow=classic;html=1;rounded=0;exitX=1;exitY=0.5;exitDx=0;exitDy=0;exitPerimeter=0;entryX=-0.043;entryY=0.61;entryDx=0;entryDy=0;entryPerimeter=0;" edge="1" parent="1" target="SCl5dZPbBmrS3JKKXA1v-67">
          <mxGeometry width="50" height="50" relative="1" as="geometry">
            <mxPoint x="609.9999999999999" y="-35.5" as="sourcePoint" />
            <mxPoint x="820" y="-35" as="targetPoint" />
          </mxGeometry>
        </mxCell>
        <mxCell id="SCl5dZPbBmrS3JKKXA1v-70" value="" style="endArrow=classic;html=1;rounded=0;exitX=0.5;exitY=1;exitDx=0;exitDy=0;" edge="1" parent="1" source="SCl5dZPbBmrS3JKKXA1v-57">
          <mxGeometry width="50" height="50" relative="1" as="geometry">
            <mxPoint x="670" y="160" as="sourcePoint" />
            <mxPoint x="960" y="-100" as="targetPoint" />
          </mxGeometry>
        </mxCell>
        <mxCell id="SCl5dZPbBmrS3JKKXA1v-76" style="edgeStyle=orthogonalEdgeStyle;rounded=0;orthogonalLoop=1;jettySize=auto;html=1;entryX=0.5;entryY=0;entryDx=0;entryDy=0;entryPerimeter=0;" edge="1" parent="1" source="SCl5dZPbBmrS3JKKXA1v-71" target="SCl5dZPbBmrS3JKKXA1v-74">
          <mxGeometry relative="1" as="geometry" />
        </mxCell>
        <mxCell id="SCl5dZPbBmrS3JKKXA1v-71" value="user-service 用户行为消费者（脚本）" style="rounded=1;whiteSpace=wrap;html=1;absoluteArcSize=1;arcSize=14;strokeWidth=2;" vertex="1" parent="1">
          <mxGeometry x="905" y="140" width="120" height="50" as="geometry" />
        </mxCell>
        <mxCell id="SCl5dZPbBmrS3JKKXA1v-73" value="&lt;span style=&quot;caret-color: rgb(51, 51, 51); color: rgb(51, 51, 51); font-family: &amp;quot;Open Sans&amp;quot;, &amp;quot;Clear Sans&amp;quot;, &amp;quot;Helvetica Neue&amp;quot;, Helvetica, Arial, &amp;quot;Segoe UI Emoji&amp;quot;, sans-serif; font-size: 13px; orphans: 4; text-align: start; text-size-adjust: auto; background-color: rgb(255, 255, 255);&quot;&gt;push_cdp_user_event_view_product&lt;/span&gt;" style="strokeWidth=2;html=1;shape=mxgraph.flowchart.database;whiteSpace=wrap;" vertex="1" parent="1">
          <mxGeometry x="680" y="310" width="60" height="60" as="geometry" />
        </mxCell>
        <mxCell id="SCl5dZPbBmrS3JKKXA1v-74" value="&lt;span style=&quot;caret-color: rgb(51, 51, 51); color: rgb(51, 51, 51); font-family: &amp;quot;Open Sans&amp;quot;, &amp;quot;Clear Sans&amp;quot;, &amp;quot;Helvetica Neue&amp;quot;, Helvetica, Arial, &amp;quot;Segoe UI Emoji&amp;quot;, sans-serif; font-size: 13px; orphans: 4; text-align: start; text-size-adjust: auto; background-color: rgb(255, 255, 255);&quot;&gt;push_cdp_user_event_add_cart&lt;/span&gt;" style="strokeWidth=2;html=1;shape=mxgraph.flowchart.database;whiteSpace=wrap;" vertex="1" parent="1">
          <mxGeometry x="935" y="310" width="60" height="60" as="geometry" />
        </mxCell>
        <mxCell id="SCl5dZPbBmrS3JKKXA1v-75" value="&lt;span style=&quot;caret-color: rgb(51, 51, 51); color: rgb(51, 51, 51); font-family: &amp;quot;Open Sans&amp;quot;, &amp;quot;Clear Sans&amp;quot;, &amp;quot;Helvetica Neue&amp;quot;, Helvetica, Arial, &amp;quot;Segoe UI Emoji&amp;quot;, sans-serif; font-size: 13px; orphans: 4; text-align: start; text-size-adjust: auto; background-color: rgb(255, 255, 255);&quot;&gt;push_cdp_user_event_favorite&lt;/span&gt;" style="strokeWidth=2;html=1;shape=mxgraph.flowchart.database;whiteSpace=wrap;" vertex="1" parent="1">
          <mxGeometry x="1230" y="310" width="60" height="60" as="geometry" />
        </mxCell>
        <mxCell id="SCl5dZPbBmrS3JKKXA1v-77" style="edgeStyle=orthogonalEdgeStyle;rounded=0;orthogonalLoop=1;jettySize=auto;html=1;entryX=0.5;entryY=0;entryDx=0;entryDy=0;entryPerimeter=0;exitX=0.5;exitY=1;exitDx=0;exitDy=0;" edge="1" parent="1" source="SCl5dZPbBmrS3JKKXA1v-71" target="SCl5dZPbBmrS3JKKXA1v-73">
          <mxGeometry relative="1" as="geometry">
            <mxPoint x="975" y="200" as="sourcePoint" />
            <mxPoint x="975" y="320" as="targetPoint" />
          </mxGeometry>
        </mxCell>
        <mxCell id="SCl5dZPbBmrS3JKKXA1v-78" style="edgeStyle=orthogonalEdgeStyle;rounded=0;orthogonalLoop=1;jettySize=auto;html=1;entryX=0.5;entryY=0;entryDx=0;entryDy=0;entryPerimeter=0;exitX=0.5;exitY=1;exitDx=0;exitDy=0;" edge="1" parent="1" source="SCl5dZPbBmrS3JKKXA1v-71" target="SCl5dZPbBmrS3JKKXA1v-75">
          <mxGeometry relative="1" as="geometry">
            <mxPoint x="975" y="200" as="sourcePoint" />
            <mxPoint x="840" y="320" as="targetPoint" />
            <Array as="points">
              <mxPoint x="965" y="250" />
              <mxPoint x="1260" y="250" />
            </Array>
          </mxGeometry>
        </mxCell>
        <mxCell id="SCl5dZPbBmrS3JKKXA1v-79" value="自动化成精 Push 发送任务" style="sketch=0;aspect=fixed;pointerEvents=1;shadow=0;dashed=0;html=1;strokeColor=none;labelPosition=center;verticalLabelPosition=bottom;verticalAlign=top;align=center;shape=mxgraph.azure.startup_task;fillColor=#0078D7;" vertex="1" parent="1">
          <mxGeometry x="320" y="445" width="57.6" height="60" as="geometry" />
        </mxCell>
        <mxCell id="SCl5dZPbBmrS3JKKXA1v-82" value="场景 Push 业务逻辑处理" style="verticalLabelPosition=bottom;verticalAlign=top;html=1;shape=process;whiteSpace=wrap;rounded=1;size=0.14;arcSize=6;" vertex="1" parent="1">
          <mxGeometry x="652.85" y="450" width="114.29" height="50" as="geometry" />
        </mxCell>
        <mxCell id="SCl5dZPbBmrS3JKKXA1v-83" value="" style="endArrow=classic;html=1;rounded=0;exitX=1;exitY=0.5;exitDx=0;exitDy=0;exitPerimeter=0;entryX=0;entryY=0.5;entryDx=0;entryDy=0;" edge="1" parent="1" source="SCl5dZPbBmrS3JKKXA1v-79" target="SCl5dZPbBmrS3JKKXA1v-82">
          <mxGeometry width="50" height="50" relative="1" as="geometry">
            <mxPoint x="620" y="-25.5" as="sourcePoint" />
            <mxPoint x="926.1300000000001" y="-25.09999999999991" as="targetPoint" />
          </mxGeometry>
        </mxCell>
        <mxCell id="SCl5dZPbBmrS3JKKXA1v-86" value="" style="endArrow=classic;html=1;rounded=0;exitX=0.5;exitY=1;exitDx=0;exitDy=0;dashed=1;exitPerimeter=0;" edge="1" parent="1">
          <mxGeometry width="50" height="50" relative="1" as="geometry">
            <mxPoint x="709.51" y="370" as="sourcePoint" />
            <mxPoint x="710" y="450" as="targetPoint" />
          </mxGeometry>
        </mxCell>
      </root>
    </mxGraphModel>
  </diagram>
</mxfile>
